<svg width="22" height="22" viewBox="0 0 22 22" fill="none" xmlns="http://www.w3.org/2000/svg">
<path d="M13.8048 8.19507L18.9333 3.06659M3.06659 18.9333L8.19506 13.8048M13.8048 13.8048L18.9333 18.9333M3.06659 3.06659L8.19506 8.19506M7.03325 1.08325H14.9666C18.2527 1.08325 20.9166 3.74716 20.9166 7.03325V14.9666C20.9166 18.2527 18.2527 20.9166 14.9666 20.9166H7.03325C3.74716 20.9166 1.08325 18.2527 1.08325 14.9666V7.03325C1.08325 3.74716 3.74716 1.08325 7.03325 1.08325ZM14.9666 10.9999C14.9666 13.1906 13.1906 14.9666 10.9999 14.9666C8.80919 14.9666 7.03325 13.1906 7.03325 10.9999C7.03325 8.80919 8.80919 7.03325 10.9999 7.03325C13.1906 7.03325 14.9666 8.80919 14.9666 10.9999Z" stroke="#435775" stroke-width="1.5" stroke-linecap="round" stroke-linejoin="round"/>
</svg>
