<svg width="18" height="22" viewBox="0 0 18 22" fill="none" xmlns="http://www.w3.org/2000/svg">
<path d="M5.68004 17C7.93443 18.3147 9.25788 18.3445 11.68 17M7.0046 21H10.3555C14.4508 21 17.3427 16.9878 16.0476 13.1026L15.0476 10.1026C14.2309 7.65258 11.9381 6 9.35549 6H8.0046C5.42202 6 3.12919 7.65258 2.3125 10.1026L1.3125 13.1026C0.0174378 16.9878 2.90925 21 7.0046 21ZM10.7659 6L6.59415 6L5.19307 4.39296C3.81964 2.81763 5.42189 0.462976 7.42711 1.10985L8.35488 1.40914C8.56612 1.47728 8.79397 1.47728 9.0052 1.40914L9.93297 1.10985C11.9382 0.462977 13.5405 2.81763 12.167 4.39296L10.7659 6Z" stroke="#435775" stroke-width="1.5" stroke-linecap="round" stroke-linejoin="round"/>
</svg>
