<svg width="20" height="22" viewBox="0 0 20 22" fill="none" xmlns="http://www.w3.org/2000/svg">
<path fill-rule="evenodd" clip-rule="evenodd" d="M20 8.96536V17.5635C20 20.0137 18.0102 22 15.5556 22H4.44444C1.98985 22 0 20.0137 0 17.5635V8.96536C0 7.63331 0.599606 6.37175 1.63318 5.52918L7.18873 1.00028C8.82478 -0.333426 11.1752 -0.333428 12.8113 1.00028L18.3668 5.52917C19.4004 6.37175 20 7.63331 20 8.96536ZM13.6111 16.775V19.25C13.6111 19.8575 13.1136 20.35 12.5 20.35H7.5C6.88635 20.35 6.38889 19.8575 6.38889 19.25V16.775C6.38889 14.8006 8.00564 13.2 10 13.2C11.9944 13.2 13.6111 14.8006 13.6111 16.775Z" fill="#1566F1"/>
</svg>
