<svg width="20" height="22" viewBox="0 0 20 22" fill="none" xmlns="http://www.w3.org/2000/svg">
<path d="M19 16.7639L10.8123 20.4029C10.2951 20.6328 9.70485 20.6328 9.18772 20.4029L1 16.7639M19 11.7639L10.8123 15.4029C10.2951 15.6328 9.70485 15.6328 9.18772 15.4029L1 11.7639M1.78885 6.65836L9.10557 10.3167C9.66863 10.5982 10.3314 10.5982 10.8944 10.3167L18.2111 6.65836C18.9482 6.28984 18.9482 5.23803 18.2111 4.8695L10.8944 1.21115C10.3314 0.929618 9.66863 0.929618 9.10557 1.21115L1.78886 4.8695C1.05181 5.23803 1.05181 6.28983 1.78885 6.65836Z" stroke="#435775" stroke-width="1.5" stroke-linecap="round" stroke-linejoin="round"/>
</svg>
